<svg xmlns="http://www.w3.org/2000/svg" viewBox="0 0 100 100"><defs><linearGradient id="sky" gradientUnits="userSpaceOnUse" x1="0" y1="0" x2="100" y2="100"><stop offset="0" stop-color="#35B8EE"/><stop offset="0.34" stop-color="#2358D6"/><stop offset="0.7" stop-color="#1B3598"/><stop offset="1" stop-color="#13296F"/></linearGradient><radialGradient id="glow" gradientUnits="userSpaceOnUse" cx="5" cy="2" r="60"><stop offset="0" stop-color="#5EE6F5" stop-opacity="0.55"/><stop offset="1" stop-color="#5EE6F5" stop-opacity="0"/></radialGradient><radialGradient id="vig" gradientUnits="userSpaceOnUse" cx="95" cy="100" r="55"><stop offset="0" stop-color="#060F3A" stop-opacity="0.2"/><stop offset="1" stop-color="#060F3A" stop-opacity="0"/></radialGradient><linearGradient id="aur" x1="0" y1="0" x2="92" y2="18" gradientUnits="userSpaceOnUse"><stop offset="0" stop-color="#8CFFD6" stop-opacity="0.95"/><stop offset="0.5" stop-color="#7FF3FF" stop-opacity="0.902"/><stop offset="0.8" stop-color="#62D6FF" stop-opacity="0.351"/><stop offset="1" stop-color="#62D6FF" stop-opacity="0"/></linearGradient><filter id="aurblur" filterUnits="userSpaceOnUse" x="-20" y="-20" width="140" height="140"><feGaussianBlur stdDeviation="2.8"/></filter><linearGradient id="aurcore" x1="0" y1="0" x2="92" y2="18" gradientUnits="userSpaceOnUse"><stop offset="0" stop-color="#EAFFF8" stop-opacity="0.95"/><stop offset="0.5" stop-color="#C8FBFF" stop-opacity="0.902"/><stop offset="0.8" stop-color="#9AE8FF" stop-opacity="0.351"/><stop offset="1" stop-color="#9AE8FF" stop-opacity="0"/></linearGradient><filter id="coreblur" filterUnits="userSpaceOnUse" x="-20" y="-20" width="140" height="140"><feGaussianBlur stdDeviation="1"/></filter></defs><rect x="0" y="0" width="100" height="100" fill="url(#sky)"/><rect x="0" y="0" width="100" height="100" fill="url(#glow)"/><rect x="0" y="0" width="100" height="100" fill="url(#vig)"/><g opacity="0.95" filter="url(#aurblur)"><path d="M-8 50C8 44 20 26 40 21S72 10 102 -2" fill="none" stroke="url(#aur)" stroke-width="9" stroke-linecap="round"/><path d="M-8 50C8 44 20 26 40 21S72 10 102 -2" transform="translate(0 -3.5)" fill="none" stroke="url(#aur)" stroke-width="9" stroke-linecap="round" opacity="0.75"/><path d="M-8 50C8 44 20 26 40 21S72 10 102 -2" transform="translate(0 -7)" fill="none" stroke="url(#aur)" stroke-width="9" stroke-linecap="round" opacity="0.55"/><path d="M-8 50C8 44 20 26 40 21S72 10 102 -2" transform="translate(0 -10.5)" fill="none" stroke="url(#aur)" stroke-width="9" stroke-linecap="round" opacity="0.38"/><path d="M-8 50C8 44 20 26 40 21S72 10 102 -2" transform="translate(0 -14)" fill="none" stroke="url(#aur)" stroke-width="9" stroke-linecap="round" opacity="0.22"/><path d="M-8 50C8 44 20 26 40 21S72 10 102 -2" transform="translate(0 -17.5)" fill="none" stroke="url(#aur)" stroke-width="9" stroke-linecap="round" opacity="0.1"/></g><g opacity="0.4" filter="url(#coreblur)"><path d="M-8 50C8 44 20 26 40 21S72 10 102 -2" fill="none" stroke="url(#aurcore)" stroke-width="1.8" stroke-linecap="round"/></g><defs><filter id="fshadow" x="-25%" y="-25%" width="150%" height="160%"><feDropShadow dx="0" dy="1.2" stdDeviation="1.2" flood-color="#061446" flood-opacity="0.3"/></filter></defs><g transform="translate(49 48.75) scale(1.08) translate(-48 -46.45)"><g filter="url(#fshadow)"><path d="M44.75 63.37A44 44 0 0 0 15 55L19 74A44 44 0 0 1 44.75 79.9Z" fill="#8FF0F0"/><path d="M51.25 63.37A44 44 0 0 1 81 55L77 74A44 44 0 0 0 51.25 79.9ZM51.25 55.57A50.5 50.5 0 0 1 81 48.48A44 44 0 0 0 76.86 35.21A63.64 63.64 0 0 0 51.25 40.77ZM51.25 33.71A70.14 70.14 0 0 1 72.99 28.84A44 44 0 0 0 51.25 13Z" fill="#FFFFFF"/></g></g></svg>
