<svg xmlns="http://www.w3.org/2000/svg" viewBox="0 0 100 100" role="img" aria-label="LivTales"><title>LivTales</title><g transform="translate(50 50) scale(1.3) translate(-49 -48.75)"><path d="M46.75 66.12A44 44 0 0 0 16 57L20 76A44 44 0 0 1 46.75 82.5Z" fill="#4FE0C4"/><path d="M51.25 66.12A44 44 0 0 1 82 57L78 76A44 44 0 0 0 51.25 82.5ZM51.25 60.57A48.5 48.5 0 0 1 82 52.49A44 44 0 0 0 79.96 43.06A57.8 57.8 0 0 0 51.25 49.75ZM51.25 44.71A62.3 62.3 0 0 1 78.16 38.54A44 44 0 0 0 72.53 29.47A71.61 71.61 0 0 0 51.25 34.53ZM51.25 29.7A76.11 76.11 0 0 1 68.75 25.34A44 44 0 0 0 51.25 15Z" fill="#F2F8FF"/></g></svg>
