<svg xmlns="http://www.w3.org/2000/svg" viewBox="0 0 100 100"><rect width="100" height="100" fill="url(#pfg)"/><defs><linearGradient id="pfg" x1=".1" y1="0" x2=".74" y2="1"><stop offset="0" stop-color="#1CC6C0"/><stop offset="0.5" stop-color="#1E90E4"/><stop offset="1" stop-color="#2550D0"/></linearGradient></defs><g transform="translate(50.0000 51.5625) scale(1.1832) translate(-48 -46.45)"><path d="M44.75 63.37A44 44 0 0 0 15 55L19 74A44 44 0 0 1 44.75 79.9Z" fill="#7DE9CF"/><path d="M51.25 63.37A44 44 0 0 1 81 55L77 74A44 44 0 0 0 51.25 79.9ZM51.25 55.57A50.5 50.5 0 0 1 81 48.48A44 44 0 0 0 76.86 35.21A63.64 63.64 0 0 0 51.25 40.77ZM51.25 33.71A70.14 70.14 0 0 1 72.99 28.84A44 44 0 0 0 51.25 13Z" fill="#FFFFFF"/></g></svg>
