<svg xmlns="http://www.w3.org/2000/svg" viewBox="0.00 0.00 100.00 100.00" role="img" aria-label="LivTales"><title>LivTales</title><defs><linearGradient id="ltm-nvpw" x1="0" y1="15" x2="0" y2="82.5" gradientUnits="userSpaceOnUse"><stop offset="0" stop-color="#27A6EC"/><stop offset="0.5" stop-color="#2358D6"/><stop offset="1" stop-color="#1A3494"/></linearGradient><linearGradient id="ltm-nvpl" x1="0" y1="57" x2="0" y2="82.5" gradientUnits="userSpaceOnUse"><stop offset="0" stop-color="#5FE0EA"/><stop offset="1" stop-color="#14AEC8"/></linearGradient><filter id="ltm-nvps" x="-25%" y="-25%" width="150%" height="160%"><feDropShadow dx="0" dy="1.4" stdDeviation="1.6" flood-color="#0B2466" flood-opacity="0.18"/></filter></defs><g transform="translate(50 50) scale(1.3) translate(-49 -48.75)"><g filter="url(#ltm-nvps)"><path d="M46.75 66.12A44 44 0 0 0 16 57L20 76A44 44 0 0 1 46.75 82.5Z" fill="url(#ltm-nvpl)"/><path d="M51.25 29.7A76.11 76.11 0 0 1 68.75 25.34A44 44 0 0 0 51.25 15ZM51.25 44.71A62.3 62.3 0 0 1 78.16 38.54A44 44 0 0 0 72.53 29.47A71.61 71.61 0 0 0 51.25 34.53ZM51.25 60.57A48.5 48.5 0 0 1 82 52.49A44 44 0 0 0 79.96 43.06A57.8 57.8 0 0 0 51.25 49.75ZM51.25 66.12A44 44 0 0 1 82 57L78 76A44 44 0 0 0 51.25 82.5Z" fill="url(#ltm-nvpw)"/></g></g></svg>
